<svg width="32" height="32" viewBox="0 0 32 32" fill="none" xmlns="http://www.w3.org/2000/svg">
<path fill-rule="evenodd" clip-rule="evenodd" d="M18.7611 1.40602C18.7611 1.40602 21.6283 4.27413 16.0417 8.68448C12.5776 11.4202 13.8601 13.2467 15.0912 14.9999L15.0912 14.9999C15.4522 15.514 15.8087 16.0217 16.0399 16.5442C13.425 14.1849 11.5059 12.108 12.7934 10.175C13.4221 9.23094 14.4211 8.44868 15.4319 7.65727C17.4589 6.07006 19.533 4.44603 18.7611 1.40602ZM17.2833 14.6001C18.6143 16.1325 16.9336 17.5115 16.9336 17.5115C16.9336 17.5115 20.3132 15.7668 18.7611 13.582C18.6991 13.4948 18.6376 13.4095 18.5773 13.3258L18.5769 13.3252L18.5767 13.3249C17.2291 11.4531 16.4583 10.3824 22.218 7.04199C22.218 7.04199 12.7714 9.4013 17.2833 14.6001ZM12.3422 20.7872C10.5359 20.6003 11.7187 19.7249 11.7187 19.7249C7.04465 21.2762 14.3192 23.0354 20.8503 21.1256C20.1561 20.8808 19.7146 20.4332 19.7146 20.4332C16.5227 21.0479 14.678 21.0281 12.3422 20.7872ZM13.1292 23.5667C11.3242 23.3592 12.3787 22.746 12.3787 22.746C8.13588 23.9315 14.9595 26.3807 20.3613 24.0656C19.4765 23.7215 18.843 23.3243 18.843 23.3243C16.4333 23.7804 15.3158 23.8162 13.1292 23.5667ZM23.5682 26.1209C25.208 25.6235 24.4276 24.9806 24.4276 24.9806C27.2845 26.2692 18.2212 28.8596 7.20753 27.0735C3.16899 26.4188 9.15131 24.1329 10.2463 24.9042C10.2463 24.9042 9.90012 24.8798 9.29441 25.0111C8.71362 25.1359 6.86727 25.7303 7.85184 26.1586C10.5908 27.3507 20.4502 27.0655 23.5682 26.1209ZM12.8858 16.5947C12.8858 16.5947 7.87065 17.7858 11.1098 18.2184C12.4775 18.4015 15.2039 18.3601 17.7435 18.1473C19.819 17.9722 21.9031 17.6 21.9031 17.6C21.9031 17.6 21.1712 17.9134 20.6417 18.2749C15.5489 19.6143 5.71059 18.9912 8.54292 17.6212C10.9382 16.4633 12.8858 16.5947 12.8858 16.5947ZM22.995 16.6963C24.6658 16.348 27.0595 18.9332 21.8824 21.6234C21.8585 21.6875 21.7784 21.759 21.7784 21.759C28.6926 19.9414 26.1506 15.3521 22.8453 16.5141C22.555 16.6172 22.403 16.8554 22.403 16.8554C22.403 16.8554 22.5855 16.7815 22.995 16.6963ZM26.1756 26.3854C25.9949 28.7368 18.3639 29.2314 13.3945 28.9133C10.1285 28.7038 9.49337 28.1781 9.49337 28.1781C12.5961 28.6897 17.8273 28.7829 22.0687 27.9847C25.8282 27.2768 26.1756 26.3854 26.1756 26.3854Z" fill="#757F99"/>
</svg>